<mxfile host="app.diagrams.net" modified="2021-02-08T06:12:18.763Z" agent="5.0 (Macintosh; Intel Mac OS X 11_1_0) AppleWebKit/537.36 (KHTML, like Gecko) Chrome/88.0.4324.146 Safari/537.36" etag="M0bswlflAuaoAyQWK7kV" version="14.2.9" type="github">
  <diagram id="C5RBs43oDa-KdzZeNtuy" name="Page-1">
    <mxGraphModel dx="2253" dy="800" grid="1" gridSize="10" guides="1" tooltips="1" connect="1" arrows="1" fold="1" page="1" pageScale="1" pageWidth="827" pageHeight="1169" math="0" shadow="0">
      <root>
        <mxCell id="WIyWlLk6GJQsqaUBKTNV-0" />
        <mxCell id="WIyWlLk6GJQsqaUBKTNV-1" parent="WIyWlLk6GJQsqaUBKTNV-0" />
        <mxCell id="LYjiTgfoy2OztdyQjs71-4" value="&lt;p style=&quot;margin: 0px ; margin-top: 4px ; text-align: center&quot;&gt;&lt;i&gt;&amp;lt;&amp;lt;Interface&amp;gt;&amp;gt;&lt;/i&gt;&lt;br&gt;&lt;b&gt;app.service.truthexam.TruthExam&lt;/b&gt;&lt;/p&gt;&lt;hr size=&quot;1&quot;&gt;&lt;p style=&quot;margin: 0px ; margin-left: 4px&quot;&gt;&lt;br&gt;&lt;/p&gt;&lt;hr size=&quot;1&quot;&gt;&lt;p style=&quot;margin: 0px ; margin-left: 4px&quot;&gt;+ ListExamWithPage(ctx *gin.Context, examTypeLv1, examTypeLv2 uint32, provinceId, examNeedArea, page, perPage int): ([]*truthExamDto.TruthExamWithOutQuestion, error)&lt;br&gt;&lt;/p&gt;" style="verticalAlign=top;align=left;overflow=fill;fontSize=12;fontFamily=Helvetica;html=1;" vertex="1" parent="WIyWlLk6GJQsqaUBKTNV-1">
          <mxGeometry x="-290" y="60" width="970" height="100" as="geometry" />
        </mxCell>
        <mxCell id="LYjiTgfoy2OztdyQjs71-9" value="app.service.truthexam.TruthExamImplV1" style="swimlane;fontStyle=1;align=center;verticalAlign=top;childLayout=stackLayout;horizontal=1;startSize=26;horizontalStack=0;resizeParent=1;resizeParentMax=0;resizeLast=0;collapsible=1;marginBottom=0;" vertex="1" parent="WIyWlLk6GJQsqaUBKTNV-1">
          <mxGeometry x="-290" y="240" width="970" height="114" as="geometry" />
        </mxCell>
        <mxCell id="LYjiTgfoy2OztdyQjs71-10" value="+ app.domain.truthexam.service.TruthExam&#xa;+ app.domain.examtype.service.ExamType" style="text;strokeColor=none;fillColor=none;align=left;verticalAlign=top;spacingLeft=4;spacingRight=4;overflow=hidden;rotatable=0;points=[[0,0.5],[1,0.5]];portConstraint=eastwest;" vertex="1" parent="LYjiTgfoy2OztdyQjs71-9">
          <mxGeometry y="26" width="970" height="54" as="geometry" />
        </mxCell>
        <mxCell id="LYjiTgfoy2OztdyQjs71-11" value="" style="line;strokeWidth=1;fillColor=none;align=left;verticalAlign=middle;spacingTop=-1;spacingLeft=3;spacingRight=3;rotatable=0;labelPosition=right;points=[];portConstraint=eastwest;" vertex="1" parent="LYjiTgfoy2OztdyQjs71-9">
          <mxGeometry y="80" width="970" height="8" as="geometry" />
        </mxCell>
        <mxCell id="LYjiTgfoy2OztdyQjs71-12" value="+ ListExamWithPage(ctx *gin.Context, examTypeLv1, examTypeLv2 uint32, provinceId, examNeedArea, page, perPage int) ([]*truthExamDto.TruthExamWithOutQuestion, error)" style="text;strokeColor=none;fillColor=none;align=left;verticalAlign=top;spacingLeft=4;spacingRight=4;overflow=hidden;rotatable=0;points=[[0,0.5],[1,0.5]];portConstraint=eastwest;" vertex="1" parent="LYjiTgfoy2OztdyQjs71-9">
          <mxGeometry y="88" width="970" height="26" as="geometry" />
        </mxCell>
        <mxCell id="LYjiTgfoy2OztdyQjs71-15" value="" style="endArrow=block;dashed=1;endFill=0;endSize=12;html=1;entryX=0.5;entryY=1;entryDx=0;entryDy=0;exitX=0.5;exitY=0;exitDx=0;exitDy=0;" edge="1" parent="WIyWlLk6GJQsqaUBKTNV-1" source="LYjiTgfoy2OztdyQjs71-9" target="LYjiTgfoy2OztdyQjs71-4">
          <mxGeometry width="160" relative="1" as="geometry">
            <mxPoint x="330" y="410" as="sourcePoint" />
            <mxPoint x="490" y="410" as="targetPoint" />
          </mxGeometry>
        </mxCell>
        <mxCell id="LYjiTgfoy2OztdyQjs71-16" value="&lt;p style=&quot;margin: 0px ; margin-top: 4px ; text-align: center&quot;&gt;&lt;i&gt;&amp;lt;&amp;lt;Interface&amp;gt;&amp;gt;&lt;/i&gt;&lt;br&gt;&lt;span style=&quot;text-align: left&quot;&gt;&lt;b&gt;app.domain.examtype.service.ExamType&lt;/b&gt;&lt;/span&gt;&lt;br&gt;&lt;/p&gt;&lt;hr size=&quot;1&quot;&gt;&lt;p style=&quot;margin: 0px ; margin-left: 4px&quot;&gt;&lt;br&gt;&lt;/p&gt;&lt;hr size=&quot;1&quot;&gt;&lt;p style=&quot;margin: 0px ; margin-left: 4px&quot;&gt;+&amp;nbsp;GetExamtypeWithParentId(ctx *gin.Context, examTypeLv1, examTypeLv2 uint32) ([]uint32, error)&lt;/p&gt;" style="verticalAlign=top;align=left;overflow=fill;fontSize=12;fontFamily=Helvetica;html=1;" vertex="1" parent="WIyWlLk6GJQsqaUBKTNV-1">
          <mxGeometry x="-290" y="460" width="560" height="140" as="geometry" />
        </mxCell>
        <mxCell id="LYjiTgfoy2OztdyQjs71-17" value="Use" style="endArrow=open;endSize=12;dashed=1;html=1;exitX=0.502;exitY=1;exitDx=0;exitDy=0;exitPerimeter=0;" edge="1" parent="WIyWlLk6GJQsqaUBKTNV-1" source="LYjiTgfoy2OztdyQjs71-12" target="LYjiTgfoy2OztdyQjs71-16">
          <mxGeometry width="160" relative="1" as="geometry">
            <mxPoint x="330" y="410" as="sourcePoint" />
            <mxPoint x="490" y="410" as="targetPoint" />
          </mxGeometry>
        </mxCell>
        <mxCell id="LYjiTgfoy2OztdyQjs71-18" value="app.domain.examtype.service.ExamTypeImplV1" style="swimlane;fontStyle=1;align=center;verticalAlign=top;childLayout=stackLayout;horizontal=1;startSize=26;horizontalStack=0;resizeParent=1;resizeParentMax=0;resizeLast=0;collapsible=1;marginBottom=0;" vertex="1" parent="WIyWlLk6GJQsqaUBKTNV-1">
          <mxGeometry x="-290" y="660" width="560" height="86" as="geometry" />
        </mxCell>
        <mxCell id="LYjiTgfoy2OztdyQjs71-19" value="+ app.domain.examtype.repository.ExamType" style="text;strokeColor=none;fillColor=none;align=left;verticalAlign=top;spacingLeft=4;spacingRight=4;overflow=hidden;rotatable=0;points=[[0,0.5],[1,0.5]];portConstraint=eastwest;" vertex="1" parent="LYjiTgfoy2OztdyQjs71-18">
          <mxGeometry y="26" width="560" height="26" as="geometry" />
        </mxCell>
        <mxCell id="LYjiTgfoy2OztdyQjs71-20" value="" style="line;strokeWidth=1;fillColor=none;align=left;verticalAlign=middle;spacingTop=-1;spacingLeft=3;spacingRight=3;rotatable=0;labelPosition=right;points=[];portConstraint=eastwest;" vertex="1" parent="LYjiTgfoy2OztdyQjs71-18">
          <mxGeometry y="52" width="560" height="8" as="geometry" />
        </mxCell>
        <mxCell id="LYjiTgfoy2OztdyQjs71-21" value="+Â GetExamtypeWithParentId(ctx *gin.Context, examTypeLv1, examTypeLv2 uint32) ([]uint32, error)" style="text;strokeColor=none;fillColor=none;align=left;verticalAlign=top;spacingLeft=4;spacingRight=4;overflow=hidden;rotatable=0;points=[[0,0.5],[1,0.5]];portConstraint=eastwest;" vertex="1" parent="LYjiTgfoy2OztdyQjs71-18">
          <mxGeometry y="60" width="560" height="26" as="geometry" />
        </mxCell>
        <mxCell id="LYjiTgfoy2OztdyQjs71-22" value="" style="endArrow=block;dashed=1;endFill=0;endSize=12;html=1;entryX=0.5;entryY=1;entryDx=0;entryDy=0;exitX=0.5;exitY=0;exitDx=0;exitDy=0;" edge="1" parent="WIyWlLk6GJQsqaUBKTNV-1" source="LYjiTgfoy2OztdyQjs71-18" target="LYjiTgfoy2OztdyQjs71-16">
          <mxGeometry width="160" relative="1" as="geometry">
            <mxPoint x="330" y="530" as="sourcePoint" />
            <mxPoint x="490" y="530" as="targetPoint" />
          </mxGeometry>
        </mxCell>
      </root>
    </mxGraphModel>
  </diagram>
</mxfile>
